<?xml version="1.0" encoding="UTF-8"?>
<svg xmlns="http://www.w3.org/2000/svg" viewBox="0 0 1200 630" role="img" aria-labelledby="artTitle">
  <title id="artTitle">This website as a static living system — a red 13-point identity core linking six world scenes and a chained blog route tree</title>
  <!--
    Parsa Tak — featured-project artwork. Original abstract system
    diagram (no screenshots, no invented UI). Generated by
    scripts/generate-project-art.mjs — regenerate, never hand-edit.
  -->
  <rect width="1200" height="630" fill="#0a0a0c"/>
  <defs>
    <pattern id="dotgrid" width="40" height="40" patternUnits="userSpaceOnUse">
      <circle cx="40" cy="45" r="1" fill="#191b20"/>
    </pattern>
  </defs>
  <rect width="1200" height="630" fill="url(#dotgrid)" opacity="0.5"/>
  <polygon points="330.000,263.000 337.768,283.483 354.166,268.956 351.525,290.703 372.795,285.461 360.351,303.489 381.621,308.732 362.223,318.913 378.621,333.439 356.714,333.439 364.482,353.923 345.085,343.742 342.444,365.489 330.000,347.460 317.556,365.489 314.915,343.742 295.518,353.923 303.286,333.439 281.379,333.439 297.777,318.913 278.379,308.732 299.649,303.489 287.205,285.461 308.475,290.703 305.834,268.956 322.232,283.483" fill="#ff2020"/>
  <circle cx="330" cy="315" r="92" fill="none" stroke="#23262d" stroke-width="1" stroke-dasharray="3 6"/>
  <line x1="330" y1="315" x2="880" y2="90" stroke="#23262d" stroke-width="1.4" opacity="0.8"/>
  <line x1="330" y1="315" x2="880" y2="172" stroke="#23262d" stroke-width="1.4" opacity="0.8"/>
  <line x1="330" y1="315" x2="880" y2="254" stroke="#23262d" stroke-width="1.4" opacity="0.8"/>
  <line x1="330" y1="315" x2="880" y2="336" stroke="#23262d" stroke-width="1.4" opacity="0.8"/>
  <line x1="330" y1="315" x2="880" y2="418" stroke="#23262d" stroke-width="1.4" opacity="0.8"/>
  <line x1="330" y1="315" x2="880" y2="500" stroke="#23262d" stroke-width="1.4" opacity="0.8"/>
  <circle cx="880" cy="90" r="7" fill="#c9cdd4"/>
  <circle cx="880" cy="172" r="7" fill="#c9cdd4"/>
  <circle cx="880" cy="254" r="7" fill="#c9cdd4"/>
  <circle cx="880" cy="336" r="7" fill="#c9cdd4"/>
  <circle cx="880" cy="418" r="7" fill="#c9cdd4"/>
  <circle cx="880" cy="500" r="7" fill="#c9cdd4"/>
  <line x1="330" y1="315" x2="560" y2="545" stroke="#23262d" stroke-width="1.4" opacity="0.8"/>
  <rect x="534" y="528" width="52" height="34" rx="7" fill="none" stroke="#565b64" stroke-width="1.4"/>
  <rect x="622" y="528" width="52" height="34" rx="7" fill="none" stroke="#565b64" stroke-width="1.4"/>
  <rect x="710" y="528" width="52" height="34" rx="7" fill="none" stroke="#ff2020" stroke-width="1.4"/>
  <path d="M587,545 L621,545 M675,545 L709,545" stroke="#565b64" stroke-width="1.4"/>
</svg>
